<svg width="61" height="75" viewBox="0 0 61 75" fill="none" xmlns="http://www.w3.org/2000/svg">
<path d="M50.3544 34.1582H9.91914C8.60142 34.1582 7.5332 35.4758 7.5332 37.101V37.4108C7.5332 39.0361 8.60142 40.3536 9.91914 40.3536H50.3544C51.6722 40.3536 52.7404 39.0361 52.7404 37.4108V37.101C52.7404 35.4758 51.6722 34.1582 50.3544 34.1582Z" fill="#1F60C2"/>
<path d="M50.3544 49.647H9.91914C8.60142 49.647 7.5332 50.9645 7.5332 52.5898V52.8996C7.5332 54.5249 8.60142 55.8424 9.91914 55.8424H50.3544C51.6722 55.8424 52.7404 54.5249 52.7404 52.8996V52.5898C52.7404 50.9645 51.6722 49.647 50.3544 49.647Z" fill="#1F60C2"/>
<path d="M50.3544 18.6694H9.91914C8.60142 18.6694 7.5332 19.987 7.5332 21.6123V21.922C7.5332 23.5473 8.60142 24.8649 9.91914 24.8649H50.3544C51.6722 24.8649 52.7404 23.5473 52.7404 21.922V21.6123C52.7404 19.987 51.6722 18.6694 50.3544 18.6694Z" fill="#1F60C2"/>
</svg>
