<svg width="59" height="63" viewBox="0 0 59 63" fill="none" xmlns="http://www.w3.org/2000/svg">
<g filter="url(#filter0_d_94_17)">
<path d="M28.271 35.8912L35.1789 29.4996L28.271 23.1079V35.8912Z" fill="#EEF3FA"/>
<path d="M29.4998 4.9165C24.6377 4.9165 19.8848 6.35829 15.8421 9.05954C11.7994 11.7608 8.64846 15.6002 6.78781 20.0922C4.92716 24.5842 4.44032 29.5271 5.38888 34.2958C6.33743 39.0645 8.67877 43.4448 12.1168 46.8829C15.5548 50.3209 19.9352 52.6623 24.7039 53.6108C29.4726 54.5594 34.4155 54.0725 38.9075 52.2119C43.3995 50.3512 47.2389 47.2003 49.9401 43.1576C52.6414 39.1149 54.0832 34.362 54.0832 29.4998C54.0832 26.2715 53.4473 23.0748 52.2119 20.0922C50.9765 17.1096 49.1657 14.3996 46.8829 12.1168C44.6001 9.83402 41.8901 8.02323 38.9075 6.7878C35.9249 5.55237 32.7282 4.9165 29.4998 4.9165ZM39.3332 32.4007L30.3848 40.6852C29.6031 41.3929 28.5876 41.7868 27.5332 41.7915C26.948 41.7901 26.3698 41.6644 25.8369 41.4228C25.1119 41.1295 24.4907 40.6266 24.0528 39.9786C23.6149 39.3305 23.3802 38.5666 23.3786 37.7844V21.2153C23.3802 20.4331 23.6149 19.6692 24.0528 19.0211C24.4907 18.373 25.1119 17.8702 25.8369 17.5769C26.5838 17.2406 27.4131 17.1312 28.2217 17.2623C29.0303 17.3935 29.7825 17.7593 30.3848 18.3144L39.3332 26.599C39.7356 26.9675 40.0569 27.4157 40.2768 27.9151C40.4966 28.4145 40.6101 28.9542 40.6101 29.4998C40.6101 30.0455 40.4966 30.5852 40.2768 31.0846C40.0569 31.584 39.7356 32.0322 39.3332 32.4007Z" fill="#EEF3FA"/>
</g>
<defs>
<filter id="filter0_d_94_17" x="0.916504" y="4.9165" width="57.1665" height="57.1665" filterUnits="userSpaceOnUse" color-interpolation-filters="sRGB">
<feFlood flood-opacity="0" result="BackgroundImageFix"/>
<feColorMatrix in="SourceAlpha" type="matrix" values="0 0 0 0 0 0 0 0 0 0 0 0 0 0 0 0 0 0 127 0" result="hardAlpha"/>
<feOffset dy="4"/>
<feGaussianBlur stdDeviation="2"/>
<feComposite in2="hardAlpha" operator="out"/>
<feColorMatrix type="matrix" values="0 0 0 0 0 0 0 0 0 0 0 0 0 0 0 0 0 0 0.25 0"/>
<feBlend mode="normal" in2="BackgroundImageFix" result="effect1_dropShadow_94_17"/>
<feBlend mode="normal" in="SourceGraphic" in2="effect1_dropShadow_94_17" result="shape"/>
</filter>
</defs>
</svg>
